<mxfile host="65bd71144e">
    <diagram id="QlIIKkgYkpYHIST5ASdP" name="Страница 1">
        <mxGraphModel dx="1333" dy="715" grid="1" gridSize="16" guides="1" tooltips="1" connect="1" arrows="1" fold="1" page="1" pageScale="1" pageWidth="827" pageHeight="1169" math="0" shadow="0">
            <root>
                <mxCell id="0"/>
                <mxCell id="1" parent="0"/>
                <mxCell id="5" value="" style="edgeStyle=none;html=1;" edge="1" parent="1" target="4">
                    <mxGeometry relative="1" as="geometry">
                        <mxPoint x="409" y="152" as="sourcePoint"/>
                    </mxGeometry>
                </mxCell>
                <mxCell id="86" style="edgeStyle=none;html=1;exitX=0.5;exitY=1;exitDx=0;exitDy=0;entryX=0.5;entryY=0;entryDx=0;entryDy=0;fontSize=14;" edge="1" parent="1" source="2" target="4">
                    <mxGeometry relative="1" as="geometry"/>
                </mxCell>
                <mxCell id="2" value="start&lt;br style=&quot;font-size: 16px;&quot;&gt;" style="ellipse;whiteSpace=wrap;html=1;fontSize=16;" vertex="1" parent="1">
                    <mxGeometry x="369" y="21" width="80" height="40" as="geometry"/>
                </mxCell>
                <mxCell id="7" value="" style="edgeStyle=none;html=1;" edge="1" parent="1" source="4" target="6">
                    <mxGeometry relative="1" as="geometry"/>
                </mxCell>
                <mxCell id="4" value="input&lt;br style=&quot;font-size: 16px;&quot;&gt;&amp;nbsp;row&lt;br style=&quot;font-size: 16px;&quot;&gt;&amp;nbsp;column&lt;br style=&quot;font-size: 16px;&quot;&gt;[ , ] word = new [row, column]" style="shape=parallelogram;perimeter=parallelogramPerimeter;whiteSpace=wrap;html=1;fixedSize=1;fontSize=16;" vertex="1" parent="1">
                    <mxGeometry x="276.69" y="128" width="264.62" height="92" as="geometry"/>
                </mxCell>
                <mxCell id="19" value="" style="edgeStyle=none;html=1;" edge="1" parent="1" source="6" target="8">
                    <mxGeometry relative="1" as="geometry"/>
                </mxCell>
                <mxCell id="6" value="New &lt;br style=&quot;font-size: 16px;&quot;&gt;Dictionary&lt;br style=&quot;font-size: 16px;&quot;&gt;{key, &quot;value&quot;}" style="rounded=0;whiteSpace=wrap;html=1;fontSize=16;" vertex="1" parent="1">
                    <mxGeometry x="343.5" y="276" width="131" height="76" as="geometry"/>
                </mxCell>
                <mxCell id="35" style="edgeStyle=none;html=1;entryX=0;entryY=0.5;entryDx=0;entryDy=0;exitX=1;exitY=0.5;exitDx=0;exitDy=0;" edge="1" parent="1" source="8">
                    <mxGeometry relative="1" as="geometry">
                        <mxPoint x="544" y="472" as="sourcePoint"/>
                        <mxPoint x="735" y="472" as="targetPoint"/>
                        <Array as="points">
                            <mxPoint x="671" y="472"/>
                        </Array>
                    </mxGeometry>
                </mxCell>
                <mxCell id="36" value="No" style="edgeLabel;html=1;align=center;verticalAlign=middle;resizable=0;points=[];fontSize=16;" vertex="1" connectable="0" parent="35">
                    <mxGeometry x="-0.8261" relative="1" as="geometry">
                        <mxPoint as="offset"/>
                    </mxGeometry>
                </mxCell>
                <mxCell id="38" value="" style="edgeStyle=none;html=1;" edge="1" parent="1" source="8" target="20">
                    <mxGeometry relative="1" as="geometry">
                        <Array as="points">
                            <mxPoint x="409" y="542"/>
                        </Array>
                    </mxGeometry>
                </mxCell>
                <mxCell id="39" value="Yes" style="edgeLabel;html=1;align=center;verticalAlign=middle;resizable=0;points=[];fontSize=16;" vertex="1" connectable="0" parent="38">
                    <mxGeometry y="1" relative="1" as="geometry">
                        <mxPoint x="-1" y="-24" as="offset"/>
                    </mxGeometry>
                </mxCell>
                <mxCell id="8" value="&lt;br style=&quot;font-size: 16px;&quot;&gt;row = 0&lt;br style=&quot;font-size: 16px;&quot;&gt;&amp;nbsp;row &amp;lt; Length&lt;br style=&quot;font-size: 16px;&quot;&gt;&amp;nbsp;" style="rhombus;whiteSpace=wrap;html=1;fontSize=16;" vertex="1" parent="1">
                    <mxGeometry x="289" y="432" width="240" height="80" as="geometry"/>
                </mxCell>
                <mxCell id="26" value="" style="edgeStyle=none;html=1;entryX=0.5;entryY=0;entryDx=0;entryDy=0;" edge="1" parent="1" source="11" target="27">
                    <mxGeometry relative="1" as="geometry">
                        <mxPoint x="384" y="864" as="targetPoint"/>
                        <Array as="points"/>
                    </mxGeometry>
                </mxCell>
                <mxCell id="31" value="Yes" style="edgeLabel;html=1;align=center;verticalAlign=middle;resizable=0;points=[];fontSize=16;" vertex="1" connectable="0" parent="26">
                    <mxGeometry x="-0.275" relative="1" as="geometry">
                        <mxPoint y="-15" as="offset"/>
                    </mxGeometry>
                </mxCell>
                <mxCell id="32" style="edgeStyle=none;html=1;exitX=0;exitY=0.5;exitDx=0;exitDy=0;entryX=0;entryY=0.5;entryDx=0;entryDy=0;" edge="1" parent="1" source="11" target="8">
                    <mxGeometry relative="1" as="geometry">
                        <mxPoint x="229" y="632" as="targetPoint"/>
                        <Array as="points">
                            <mxPoint x="209" y="752"/>
                            <mxPoint x="209" y="632"/>
                            <mxPoint x="209" y="472"/>
                        </Array>
                    </mxGeometry>
                </mxCell>
                <mxCell id="33" value="No" style="edgeLabel;html=1;align=center;verticalAlign=middle;resizable=0;points=[];fontSize=16;" vertex="1" connectable="0" parent="32">
                    <mxGeometry x="-0.6625" y="1" relative="1" as="geometry">
                        <mxPoint x="57" y="-1" as="offset"/>
                    </mxGeometry>
                </mxCell>
                <mxCell id="11" value="column = 1&lt;br style=&quot;font-size: 16px;&quot;&gt;column &amp;lt; length&lt;br style=&quot;font-size: 16px;&quot;&gt;" style="rhombus;whiteSpace=wrap;html=1;fontSize=16;" vertex="1" parent="1">
                    <mxGeometry x="289" y="712" width="240" height="80" as="geometry"/>
                </mxCell>
                <mxCell id="40" value="" style="edgeStyle=none;html=1;" edge="1" parent="1" source="20" target="11">
                    <mxGeometry relative="1" as="geometry"/>
                </mxCell>
                <mxCell id="20" value="row&amp;nbsp; = row +1" style="rounded=0;whiteSpace=wrap;html=1;fontSize=16;" vertex="1" parent="1">
                    <mxGeometry x="349" y="592" width="120" height="40" as="geometry"/>
                </mxCell>
                <mxCell id="21" value="print&lt;br style=&quot;font-size: 16px;&quot;&gt;[row, column]" style="rounded=0;whiteSpace=wrap;html=1;fontSize=16;" vertex="1" parent="1">
                    <mxGeometry x="64" y="856" width="128" height="56" as="geometry"/>
                </mxCell>
                <mxCell id="41" style="edgeStyle=none;html=1;entryX=0;entryY=0.5;entryDx=0;entryDy=0;exitX=0.5;exitY=0;exitDx=0;exitDy=0;" edge="1" parent="1" source="21" target="8">
                    <mxGeometry relative="1" as="geometry">
                        <mxPoint x="272" y="448" as="targetPoint"/>
                        <mxPoint x="128" y="848" as="sourcePoint"/>
                        <Array as="points">
                            <mxPoint x="128" y="472"/>
                        </Array>
                    </mxGeometry>
                </mxCell>
                <mxCell id="139" style="edgeStyle=none;html=1;exitX=0;exitY=0.5;exitDx=0;exitDy=0;entryX=1;entryY=0.5;entryDx=0;entryDy=0;fontSize=16;" edge="1" parent="1" source="27" target="21">
                    <mxGeometry relative="1" as="geometry"/>
                </mxCell>
                <mxCell id="27" value="column&amp;nbsp; = column +1" style="rounded=0;whiteSpace=wrap;html=1;fontSize=16;" vertex="1" parent="1">
                    <mxGeometry x="324.88" y="864" width="168.25" height="40" as="geometry"/>
                </mxCell>
                <mxCell id="43" value="" style="edgeStyle=none;html=1;" edge="1" source="45" parent="1">
                    <mxGeometry relative="1" as="geometry">
                        <mxPoint x="1248" y="612" as="targetPoint"/>
                        <Array as="points">
                            <mxPoint x="1248" y="542"/>
                        </Array>
                    </mxGeometry>
                </mxCell>
                <mxCell id="44" value="Yes" style="edgeLabel;html=1;align=center;verticalAlign=middle;resizable=0;points=[];fontSize=16;" vertex="1" connectable="0" parent="43">
                    <mxGeometry y="1" relative="1" as="geometry">
                        <mxPoint x="-1" y="-34" as="offset"/>
                    </mxGeometry>
                </mxCell>
                <mxCell id="62" style="edgeStyle=none;html=1;entryX=0;entryY=0.5;entryDx=0;entryDy=0;" edge="1" parent="1" source="45" target="61">
                    <mxGeometry relative="1" as="geometry"/>
                </mxCell>
                <mxCell id="138" value="No" style="edgeLabel;html=1;align=center;verticalAlign=middle;resizable=0;points=[];fontSize=16;" vertex="1" connectable="0" parent="62">
                    <mxGeometry x="-0.6429" y="2" relative="1" as="geometry">
                        <mxPoint as="offset"/>
                    </mxGeometry>
                </mxCell>
                <mxCell id="45" value="&lt;br style=&quot;font-size: 16px;&quot;&gt;row = 0&lt;br style=&quot;font-size: 16px;&quot;&gt;&amp;nbsp;row &amp;lt; Length&lt;br style=&quot;font-size: 16px;&quot;&gt;&amp;nbsp;" style="rhombus;whiteSpace=wrap;html=1;fontSize=16;" vertex="1" parent="1">
                    <mxGeometry x="1124" y="432" width="252" height="80" as="geometry"/>
                </mxCell>
                <mxCell id="46" value="" style="edgeStyle=none;html=1;" edge="1" source="50" parent="1">
                    <mxGeometry relative="1" as="geometry">
                        <mxPoint x="1248" y="944" as="targetPoint"/>
                        <Array as="points">
                            <mxPoint x="1248" y="880"/>
                        </Array>
                    </mxGeometry>
                </mxCell>
                <mxCell id="47" value="Yes" style="edgeLabel;html=1;align=center;verticalAlign=middle;resizable=0;points=[];fontSize=16;" vertex="1" connectable="0" parent="46">
                    <mxGeometry x="-0.275" relative="1" as="geometry">
                        <mxPoint y="-32" as="offset"/>
                    </mxGeometry>
                </mxCell>
                <mxCell id="48" style="edgeStyle=none;html=1;exitX=0;exitY=0.5;exitDx=0;exitDy=0;entryX=0;entryY=0.5;entryDx=0;entryDy=0;" edge="1" source="50" target="45" parent="1">
                    <mxGeometry relative="1" as="geometry">
                        <mxPoint x="1068" y="632" as="targetPoint"/>
                        <Array as="points">
                            <mxPoint x="1048" y="768"/>
                            <mxPoint x="1048" y="632"/>
                            <mxPoint x="1048" y="472"/>
                        </Array>
                    </mxGeometry>
                </mxCell>
                <mxCell id="49" value="No" style="edgeLabel;html=1;align=center;verticalAlign=middle;resizable=0;points=[];fontSize=16;" vertex="1" connectable="0" parent="48">
                    <mxGeometry x="-0.6625" y="1" relative="1" as="geometry">
                        <mxPoint x="14" y="-1" as="offset"/>
                    </mxGeometry>
                </mxCell>
                <mxCell id="50" value="column = 1&lt;br style=&quot;font-size: 16px;&quot;&gt;column &amp;lt; length&lt;br style=&quot;font-size: 16px;&quot;&gt;" style="rhombus;whiteSpace=wrap;html=1;fontSize=16;" vertex="1" parent="1">
                    <mxGeometry x="1128" y="726" width="240" height="80" as="geometry"/>
                </mxCell>
                <mxCell id="51" value="" style="edgeStyle=none;html=1;" edge="1" source="52" target="50" parent="1">
                    <mxGeometry relative="1" as="geometry"/>
                </mxCell>
                <mxCell id="52" value="row&amp;nbsp; = row +1" style="rounded=0;whiteSpace=wrap;html=1;fontSize=16;" vertex="1" parent="1">
                    <mxGeometry x="1188" y="592" width="120" height="40" as="geometry"/>
                </mxCell>
                <mxCell id="54" value="Random (Dictionari)&lt;br style=&quot;font-size: 16px;&quot;&gt;print&lt;br style=&quot;font-size: 16px;&quot;&gt;[row, column]" style="rounded=0;whiteSpace=wrap;html=1;fontSize=16;" vertex="1" parent="1">
                    <mxGeometry x="912" y="934" width="160" height="60" as="geometry"/>
                </mxCell>
                <mxCell id="55" style="edgeStyle=none;html=1;entryX=0;entryY=0.5;entryDx=0;entryDy=0;exitX=0.5;exitY=0;exitDx=0;exitDy=0;" edge="1" source="54" target="45" parent="1">
                    <mxGeometry relative="1" as="geometry">
                        <mxPoint x="1104" y="448" as="targetPoint"/>
                        <mxPoint x="992" y="944" as="sourcePoint"/>
                        <Array as="points">
                            <mxPoint x="992" y="472"/>
                        </Array>
                    </mxGeometry>
                </mxCell>
                <mxCell id="140" value="" style="edgeStyle=none;html=1;fontSize=16;" edge="1" parent="1" source="56" target="54">
                    <mxGeometry relative="1" as="geometry"/>
                </mxCell>
                <mxCell id="56" value="column&amp;nbsp; = column +1" style="rounded=0;whiteSpace=wrap;html=1;fontSize=16;" vertex="1" parent="1">
                    <mxGeometry x="1168" y="944" width="160" height="40" as="geometry"/>
                </mxCell>
                <mxCell id="57" value="A --&amp;gt; B" style="ellipse;whiteSpace=wrap;html=1;aspect=fixed;fontSize=16;" vertex="1" parent="1">
                    <mxGeometry x="720" y="432" width="80" height="80" as="geometry"/>
                </mxCell>
                <mxCell id="60" style="edgeStyle=none;html=1;exitX=0.5;exitY=1;exitDx=0;exitDy=0;entryX=0.5;entryY=0;entryDx=0;entryDy=0;" edge="1" parent="1" source="58" target="45">
                    <mxGeometry relative="1" as="geometry"/>
                </mxCell>
                <mxCell id="58" value="B" style="ellipse;whiteSpace=wrap;html=1;aspect=fixed;fontSize=16;" vertex="1" parent="1">
                    <mxGeometry x="1208" y="112" width="80" height="80" as="geometry"/>
                </mxCell>
                <mxCell id="59" value="A --&amp;gt; B --&amp;gt; C&amp;nbsp;" style="ellipse;whiteSpace=wrap;html=1;aspect=fixed;fontSize=16;" vertex="1" parent="1">
                    <mxGeometry x="83.5" y="21" width="131" height="131" as="geometry"/>
                </mxCell>
                <mxCell id="61" value="B --&amp;gt; C" style="ellipse;whiteSpace=wrap;html=1;aspect=fixed;fontSize=16;" vertex="1" parent="1">
                    <mxGeometry x="1536" y="432" width="80" height="80" as="geometry"/>
                </mxCell>
                <mxCell id="63" value="end&lt;br style=&quot;font-size: 16px;&quot;&gt;" style="ellipse;whiteSpace=wrap;html=1;fontSize=16;" vertex="1" parent="1">
                    <mxGeometry x="2368" y="172" width="80" height="40" as="geometry"/>
                </mxCell>
                <mxCell id="115" style="edgeStyle=none;html=1;exitX=1;exitY=0.5;exitDx=0;exitDy=0;entryX=0;entryY=0.5;entryDx=0;entryDy=0;fontSize=16;" edge="1" parent="1" source="68" target="63">
                    <mxGeometry relative="1" as="geometry"/>
                </mxCell>
                <mxCell id="119" value="No" style="edgeLabel;html=1;align=center;verticalAlign=middle;resizable=0;points=[];fontSize=16;" vertex="1" connectable="0" parent="115">
                    <mxGeometry x="-0.75" y="-1" relative="1" as="geometry">
                        <mxPoint as="offset"/>
                    </mxGeometry>
                </mxCell>
                <mxCell id="132" value="" style="edgeStyle=none;html=1;fontSize=16;exitX=0.5;exitY=1;exitDx=0;exitDy=0;" edge="1" parent="1">
                    <mxGeometry relative="1" as="geometry">
                        <mxPoint x="2047.25" y="240" as="sourcePoint"/>
                        <mxPoint x="2046.5" y="288" as="targetPoint"/>
                    </mxGeometry>
                </mxCell>
                <mxCell id="133" value="Yes" style="edgeLabel;html=1;align=center;verticalAlign=middle;resizable=0;points=[];fontSize=16;" vertex="1" connectable="0" parent="132">
                    <mxGeometry x="0.417" relative="1" as="geometry">
                        <mxPoint y="-18" as="offset"/>
                    </mxGeometry>
                </mxCell>
                <mxCell id="68" value="&lt;br style=&quot;font-size: 16px;&quot;&gt;row = 0&lt;br style=&quot;font-size: 16px;&quot;&gt;&amp;nbsp;row &amp;lt; Length&lt;br style=&quot;font-size: 16px;&quot;&gt;&amp;nbsp;" style="rhombus;whiteSpace=wrap;html=1;fontSize=16;" vertex="1" parent="1">
                    <mxGeometry x="1920" y="144" width="256" height="96" as="geometry"/>
                </mxCell>
                <mxCell id="129" value="" style="edgeStyle=none;html=1;fontSize=16;" edge="1" parent="1" source="73" target="98">
                    <mxGeometry relative="1" as="geometry"/>
                </mxCell>
                <mxCell id="130" value="Yes" style="edgeLabel;html=1;align=center;verticalAlign=middle;resizable=0;points=[];fontSize=16;" vertex="1" connectable="0" parent="129">
                    <mxGeometry x="-0.4375" relative="1" as="geometry">
                        <mxPoint as="offset"/>
                    </mxGeometry>
                </mxCell>
                <mxCell id="134" style="edgeStyle=none;html=1;exitX=0;exitY=0.5;exitDx=0;exitDy=0;fontSize=16;" edge="1" parent="1" source="73">
                    <mxGeometry relative="1" as="geometry">
                        <mxPoint x="1920" y="192" as="targetPoint"/>
                        <Array as="points">
                            <mxPoint x="1856" y="400"/>
                            <mxPoint x="1856" y="192"/>
                        </Array>
                    </mxGeometry>
                </mxCell>
                <mxCell id="135" value="No" style="edgeLabel;html=1;align=center;verticalAlign=middle;resizable=0;points=[];fontSize=16;" vertex="1" connectable="0" parent="134">
                    <mxGeometry x="-0.9167" y="1" relative="1" as="geometry">
                        <mxPoint x="-18" y="-1" as="offset"/>
                    </mxGeometry>
                </mxCell>
                <mxCell id="73" value="column = 1&lt;br style=&quot;font-size: 16px;&quot;&gt;column &amp;lt; length&lt;br style=&quot;font-size: 16px;&quot;&gt;" style="rhombus;whiteSpace=wrap;html=1;fontSize=16;" vertex="1" parent="1">
                    <mxGeometry x="1920" y="352" width="256" height="96" as="geometry"/>
                </mxCell>
                <mxCell id="118" style="edgeStyle=none;html=1;exitX=0.5;exitY=0;exitDx=0;exitDy=0;fontSize=16;entryX=0;entryY=0.5;entryDx=0;entryDy=0;" edge="1" parent="1" source="77" target="68">
                    <mxGeometry relative="1" as="geometry">
                        <mxPoint x="1760" y="192" as="targetPoint"/>
                        <Array as="points">
                            <mxPoint x="1760" y="192"/>
                        </Array>
                    </mxGeometry>
                </mxCell>
                <mxCell id="77" value="print&lt;br&gt;&amp;nbsp;word1 [ t ]" style="rounded=0;whiteSpace=wrap;html=1;fontSize=16;" vertex="1" parent="1">
                    <mxGeometry x="1696" y="1026" width="128" height="62" as="geometry"/>
                </mxCell>
                <mxCell id="120" style="edgeStyle=none;html=1;exitX=0.5;exitY=1;exitDx=0;exitDy=0;fontSize=16;entryX=0.5;entryY=0;entryDx=0;entryDy=0;" edge="1" parent="1" source="81" target="68">
                    <mxGeometry relative="1" as="geometry">
                        <mxPoint x="2046" y="96" as="targetPoint"/>
                    </mxGeometry>
                </mxCell>
                <mxCell id="81" value="C" style="ellipse;whiteSpace=wrap;html=1;aspect=fixed;fontSize=16;" vertex="1" parent="1">
                    <mxGeometry x="2007" y="16" width="80" height="80" as="geometry"/>
                </mxCell>
                <mxCell id="127" value="" style="edgeStyle=none;html=1;fontSize=16;" edge="1" parent="1" source="84" target="87">
                    <mxGeometry relative="1" as="geometry"/>
                </mxCell>
                <mxCell id="84" value="&lt;div style=&quot;font-size: 16px;&quot;&gt;s = word [ row, column ]&lt;/div&gt;&lt;div style=&quot;font-size: 16px;&quot;&gt;&lt;span style=&quot;background-color: initial; font-size: 16px;&quot;&gt;[ ] word1 = s.Split( ' ' )&lt;/span&gt;&lt;/div&gt;" style="rounded=0;whiteSpace=wrap;html=1;fontSize=16;" vertex="1" parent="1">
                    <mxGeometry x="1951" y="566" width="192" height="66" as="geometry"/>
                </mxCell>
                <mxCell id="131" value="" style="edgeStyle=none;html=1;fontSize=16;" edge="1" parent="1" source="75" target="73">
                    <mxGeometry relative="1" as="geometry"/>
                </mxCell>
                <mxCell id="75" value="row&amp;nbsp; = row +1" style="rounded=0;whiteSpace=wrap;html=1;fontSize=16;" vertex="1" parent="1">
                    <mxGeometry x="1983" y="288" width="128" height="32" as="geometry"/>
                </mxCell>
                <mxCell id="128" value="" style="edgeStyle=none;html=1;fontSize=16;" edge="1" parent="1" source="98" target="84">
                    <mxGeometry relative="1" as="geometry"/>
                </mxCell>
                <mxCell id="98" value="column&amp;nbsp; = column +1" style="rounded=0;whiteSpace=wrap;html=1;fontSize=16;" vertex="1" parent="1">
                    <mxGeometry x="1964" y="496" width="168" height="40" as="geometry"/>
                </mxCell>
                <mxCell id="122" value="" style="edgeStyle=none;html=1;fontSize=16;" edge="1" parent="1" source="87" target="105">
                    <mxGeometry relative="1" as="geometry"/>
                </mxCell>
                <mxCell id="124" value="Yes" style="edgeLabel;html=1;align=center;verticalAlign=middle;resizable=0;points=[];fontSize=16;" vertex="1" connectable="0" parent="122">
                    <mxGeometry x="-0.3715" y="2" relative="1" as="geometry">
                        <mxPoint as="offset"/>
                    </mxGeometry>
                </mxCell>
                <mxCell id="136" style="edgeStyle=none;html=1;exitX=0;exitY=0.5;exitDx=0;exitDy=0;fontSize=16;" edge="1" parent="1" source="87">
                    <mxGeometry relative="1" as="geometry">
                        <mxPoint x="1918" y="192" as="targetPoint"/>
                        <Array as="points">
                            <mxPoint x="1824" y="720"/>
                            <mxPoint x="1824" y="192"/>
                        </Array>
                    </mxGeometry>
                </mxCell>
                <mxCell id="137" value="No" style="edgeLabel;html=1;align=center;verticalAlign=middle;resizable=0;points=[];fontSize=16;" vertex="1" connectable="0" parent="136">
                    <mxGeometry x="-0.919" y="1" relative="1" as="geometry">
                        <mxPoint as="offset"/>
                    </mxGeometry>
                </mxCell>
                <mxCell id="87" value="t = 0 &lt;br&gt;t &amp;lt; word1.Count( )" style="rhombus;whiteSpace=wrap;html=1;fontSize=16;" vertex="1" parent="1">
                    <mxGeometry x="1918" y="672" width="258" height="96" as="geometry"/>
                </mxCell>
                <mxCell id="123" value="" style="edgeStyle=none;html=1;fontSize=16;" edge="1" parent="1" source="105" target="106">
                    <mxGeometry relative="1" as="geometry"/>
                </mxCell>
                <mxCell id="105" value="t = t + 1" style="rounded=0;whiteSpace=wrap;html=1;fontSize=16;" vertex="1" parent="1">
                    <mxGeometry x="1964" y="816" width="168" height="40" as="geometry"/>
                </mxCell>
                <mxCell id="116" style="edgeStyle=none;html=1;exitX=0.5;exitY=1;exitDx=0;exitDy=0;fontSize=16;entryX=1;entryY=0.5;entryDx=0;entryDy=0;" edge="1" parent="1" source="106" target="77">
                    <mxGeometry relative="1" as="geometry">
                        <mxPoint x="2046" y="1072" as="targetPoint"/>
                        <Array as="points">
                            <mxPoint x="2048" y="1056"/>
                        </Array>
                    </mxGeometry>
                </mxCell>
                <mxCell id="117" value="Yes" style="edgeLabel;html=1;align=center;verticalAlign=middle;resizable=0;points=[];fontSize=16;" vertex="1" connectable="0" parent="116">
                    <mxGeometry x="-0.854" relative="1" as="geometry">
                        <mxPoint as="offset"/>
                    </mxGeometry>
                </mxCell>
                <mxCell id="125" style="edgeStyle=none;html=1;exitX=0;exitY=0.5;exitDx=0;exitDy=0;fontSize=16;" edge="1" parent="1" source="106">
                    <mxGeometry relative="1" as="geometry">
                        <mxPoint x="1918" y="192" as="targetPoint"/>
                        <Array as="points">
                            <mxPoint x="1792" y="944"/>
                            <mxPoint x="1792" y="192"/>
                        </Array>
                    </mxGeometry>
                </mxCell>
                <mxCell id="126" value="No" style="edgeLabel;html=1;align=center;verticalAlign=middle;resizable=0;points=[];fontSize=16;" vertex="1" connectable="0" parent="125">
                    <mxGeometry x="-0.9522" y="-1" relative="1" as="geometry">
                        <mxPoint as="offset"/>
                    </mxGeometry>
                </mxCell>
                <mxCell id="106" value="word1[ t ].lenght &amp;lt;= 3" style="rhombus;whiteSpace=wrap;html=1;fontSize=16;" vertex="1" parent="1">
                    <mxGeometry x="1918" y="896" width="258" height="96" as="geometry"/>
                </mxCell>
            </root>
        </mxGraphModel>
    </diagram>
</mxfile>